# xmcd
# 
# Track frame offsets:
#     150
#     36160
#     54609
#     71263
#     103523
#     131459
#     160188
#     187923
# 
# Disc length: 2879
# 
# Revision: 5
# Processed by: cddbd v1.5.2PL0 Copyright (c) Steve Scherf et al.
# Submitted via: fre:ac v1.0.31
# 
DISCID=610b3d08
DTITLE=Gary Clark Jr. - Gary Clark Jr. Live
DYEAR=2014
DGENRE=Blues
TTITLE0=Catfish Blues
TTITLE1=Next Door Neighbor Blues
TTITLE2=Travis County
TTITLE3=When My Train Pulls In
TTITLE4=Don't Owe You a Thang
TTITLE5=Three O'Clock Blues
TTITLE6=Things Are Changin'
TTITLE7=Numb
EXTD=
EXTT0=
EXTT1=
EXTT2=
EXTT3=
EXTT4=
EXTT5=
EXTT6=
EXTT7=
PLAYORDER=
